<mxfile host="app.diagrams.net" agent="Mozilla/5.0 (Windows NT 10.0; Win64; x64) AppleWebKit/537.36 (KHTML, like Gecko) Chrome/136.0.0.0 Safari/537.36" version="27.0.2">
  <diagram name="Page-1" id="13e1069c-82ec-6db2-03f1-153e76fe0fe0">
    <mxGraphModel dx="1042" dy="623" grid="1" gridSize="10" guides="1" tooltips="1" connect="1" arrows="1" fold="1" page="1" pageScale="1" pageWidth="1100" pageHeight="850" background="none" math="0" shadow="0">
      <root>
        <mxCell id="0" />
        <mxCell id="1" parent="0" />
        <mxCell id="gvNoKPHLJ0Dtw5HCDL2o-46" value="系统关键交互" style="html=1;align=center;verticalAlign=top;rounded=1;absoluteArcSize=1;arcSize=10;dashed=0;whiteSpace=wrap;" vertex="1" parent="1">
          <mxGeometry x="580" y="440" width="230" height="245" as="geometry" />
        </mxCell>
        <mxCell id="gvNoKPHLJ0Dtw5HCDL2o-1" value=":应用1" style="shape=umlLifeline;perimeter=lifelinePerimeter;whiteSpace=wrap;html=1;container=1;dropTarget=0;collapsible=0;recursiveResize=0;outlineConnect=0;portConstraint=eastwest;newEdgeStyle={&quot;curved&quot;:0,&quot;rounded&quot;:0};" vertex="1" parent="1">
          <mxGeometry x="520" y="150" width="100" height="850" as="geometry" />
        </mxCell>
        <mxCell id="gvNoKPHLJ0Dtw5HCDL2o-2" value="" style="shape=umlLifeline;perimeter=lifelinePerimeter;whiteSpace=wrap;html=1;container=1;dropTarget=0;collapsible=0;recursiveResize=0;outlineConnect=0;portConstraint=eastwest;newEdgeStyle={&quot;curved&quot;:0,&quot;rounded&quot;:0};participant=umlActor;" vertex="1" parent="1">
          <mxGeometry x="350" y="150" width="20" height="840" as="geometry" />
        </mxCell>
        <mxCell id="gvNoKPHLJ0Dtw5HCDL2o-3" value=":应用2" style="shape=umlLifeline;perimeter=lifelinePerimeter;whiteSpace=wrap;html=1;container=1;dropTarget=0;collapsible=0;recursiveResize=0;outlineConnect=0;portConstraint=eastwest;newEdgeStyle={&quot;curved&quot;:0,&quot;rounded&quot;:0};" vertex="1" parent="1">
          <mxGeometry x="780" y="150" width="100" height="850" as="geometry" />
        </mxCell>
        <mxCell id="gvNoKPHLJ0Dtw5HCDL2o-4" value="" style="endArrow=open;endFill=1;endSize=12;html=1;rounded=0;" edge="1" parent="1">
          <mxGeometry width="160" relative="1" as="geometry">
            <mxPoint x="380" y="230" as="sourcePoint" />
            <mxPoint x="540" y="230" as="targetPoint" />
          </mxGeometry>
        </mxCell>
        <mxCell id="gvNoKPHLJ0Dtw5HCDL2o-7" value="1.访问应用1资源" style="edgeLabel;html=1;align=center;verticalAlign=middle;resizable=0;points=[];" vertex="1" connectable="0" parent="gvNoKPHLJ0Dtw5HCDL2o-4">
          <mxGeometry x="-0.0187" relative="1" as="geometry">
            <mxPoint as="offset" />
          </mxGeometry>
        </mxCell>
        <mxCell id="gvNoKPHLJ0Dtw5HCDL2o-8" value="" style="html=1;verticalAlign=bottom;labelBackgroundColor=none;endArrow=none;endFill=0;dashed=1;rounded=0;startArrow=open;startFill=0;startSize=12;" edge="1" parent="1">
          <mxGeometry width="160" relative="1" as="geometry">
            <mxPoint x="380" y="270" as="sourcePoint" />
            <mxPoint x="540" y="270" as="targetPoint" />
          </mxGeometry>
        </mxCell>
        <mxCell id="gvNoKPHLJ0Dtw5HCDL2o-10" value="1.1 跳转到登录页面" style="edgeLabel;html=1;align=center;verticalAlign=middle;resizable=0;points=[];" vertex="1" connectable="0" parent="gvNoKPHLJ0Dtw5HCDL2o-8">
          <mxGeometry x="0.0813" y="-2" relative="1" as="geometry">
            <mxPoint as="offset" />
          </mxGeometry>
        </mxCell>
        <mxCell id="gvNoKPHLJ0Dtw5HCDL2o-11" value="" style="endArrow=open;endFill=1;endSize=12;html=1;rounded=0;" edge="1" parent="1">
          <mxGeometry width="160" relative="1" as="geometry">
            <mxPoint x="380" y="320" as="sourcePoint" />
            <mxPoint x="540" y="320" as="targetPoint" />
          </mxGeometry>
        </mxCell>
        <mxCell id="gvNoKPHLJ0Dtw5HCDL2o-12" value="1.2 用户名密码登录" style="edgeLabel;html=1;align=center;verticalAlign=middle;resizable=0;points=[];" vertex="1" connectable="0" parent="gvNoKPHLJ0Dtw5HCDL2o-11">
          <mxGeometry x="-0.0187" relative="1" as="geometry">
            <mxPoint as="offset" />
          </mxGeometry>
        </mxCell>
        <mxCell id="gvNoKPHLJ0Dtw5HCDL2o-13" value="" style="html=1;verticalAlign=bottom;labelBackgroundColor=none;endArrow=none;endFill=0;dashed=1;rounded=0;startArrow=open;startFill=0;startSize=12;" edge="1" parent="1">
          <mxGeometry width="160" relative="1" as="geometry">
            <mxPoint x="380" y="360" as="sourcePoint" />
            <mxPoint x="540" y="360" as="targetPoint" />
          </mxGeometry>
        </mxCell>
        <mxCell id="gvNoKPHLJ0Dtw5HCDL2o-14" value="1.3 返回应用1 token" style="edgeLabel;html=1;align=center;verticalAlign=middle;resizable=0;points=[];" vertex="1" connectable="0" parent="gvNoKPHLJ0Dtw5HCDL2o-13">
          <mxGeometry x="0.0813" y="-2" relative="1" as="geometry">
            <mxPoint as="offset" />
          </mxGeometry>
        </mxCell>
        <mxCell id="gvNoKPHLJ0Dtw5HCDL2o-15" value="" style="endArrow=open;endFill=1;endSize=12;html=1;rounded=0;" edge="1" parent="1">
          <mxGeometry width="160" relative="1" as="geometry">
            <mxPoint x="380" y="400" as="sourcePoint" />
            <mxPoint x="540" y="400" as="targetPoint" />
          </mxGeometry>
        </mxCell>
        <mxCell id="gvNoKPHLJ0Dtw5HCDL2o-16" value="1.4 携带token访问应用1资源" style="edgeLabel;html=1;align=center;verticalAlign=middle;resizable=0;points=[];" vertex="1" connectable="0" parent="gvNoKPHLJ0Dtw5HCDL2o-15">
          <mxGeometry x="-0.0187" relative="1" as="geometry">
            <mxPoint as="offset" />
          </mxGeometry>
        </mxCell>
        <mxCell id="gvNoKPHLJ0Dtw5HCDL2o-17" value="" style="html=1;verticalAlign=bottom;labelBackgroundColor=none;endArrow=none;endFill=0;dashed=1;rounded=0;startArrow=open;startFill=0;startSize=12;" edge="1" parent="1">
          <mxGeometry width="160" relative="1" as="geometry">
            <mxPoint x="380" y="440" as="sourcePoint" />
            <mxPoint x="540" y="440" as="targetPoint" />
          </mxGeometry>
        </mxCell>
        <mxCell id="gvNoKPHLJ0Dtw5HCDL2o-18" value="1.5 返回应用1 资源" style="edgeLabel;html=1;align=center;verticalAlign=middle;resizable=0;points=[];" vertex="1" connectable="0" parent="gvNoKPHLJ0Dtw5HCDL2o-17">
          <mxGeometry x="0.0813" y="-2" relative="1" as="geometry">
            <mxPoint as="offset" />
          </mxGeometry>
        </mxCell>
        <mxCell id="gvNoKPHLJ0Dtw5HCDL2o-19" value="" style="endArrow=open;endFill=1;endSize=12;html=1;rounded=0;" edge="1" parent="1">
          <mxGeometry width="160" relative="1" as="geometry">
            <mxPoint x="380" y="490" as="sourcePoint" />
            <mxPoint x="540" y="490" as="targetPoint" />
          </mxGeometry>
        </mxCell>
        <mxCell id="gvNoKPHLJ0Dtw5HCDL2o-20" value="2.跳转应用2，开始单点登录" style="edgeLabel;html=1;align=center;verticalAlign=middle;resizable=0;points=[];" vertex="1" connectable="0" parent="gvNoKPHLJ0Dtw5HCDL2o-19">
          <mxGeometry x="-0.0187" relative="1" as="geometry">
            <mxPoint as="offset" />
          </mxGeometry>
        </mxCell>
        <mxCell id="gvNoKPHLJ0Dtw5HCDL2o-21" value="" style="endArrow=open;endFill=1;endSize=12;html=1;rounded=0;" edge="1" parent="1">
          <mxGeometry width="160" relative="1" as="geometry">
            <mxPoint x="600" y="510" as="sourcePoint" />
            <mxPoint x="800" y="510" as="targetPoint" />
          </mxGeometry>
        </mxCell>
        <mxCell id="gvNoKPHLJ0Dtw5HCDL2o-22" value="2.1 携带client id/client secret&lt;div&gt;获取随机码&lt;/div&gt;" style="edgeLabel;html=1;align=center;verticalAlign=middle;resizable=0;points=[];" vertex="1" connectable="0" parent="gvNoKPHLJ0Dtw5HCDL2o-21">
          <mxGeometry x="-0.0187" relative="1" as="geometry">
            <mxPoint as="offset" />
          </mxGeometry>
        </mxCell>
        <mxCell id="gvNoKPHLJ0Dtw5HCDL2o-25" value="" style="html=1;verticalAlign=bottom;labelBackgroundColor=none;endArrow=none;endFill=0;dashed=1;rounded=0;startArrow=open;startFill=0;startSize=12;" edge="1" parent="1">
          <mxGeometry width="160" relative="1" as="geometry">
            <mxPoint x="600" y="550" as="sourcePoint" />
            <mxPoint x="800" y="550" as="targetPoint" />
          </mxGeometry>
        </mxCell>
        <mxCell id="gvNoKPHLJ0Dtw5HCDL2o-26" value="2.2 返回随机码" style="edgeLabel;html=1;align=center;verticalAlign=middle;resizable=0;points=[];" vertex="1" connectable="0" parent="gvNoKPHLJ0Dtw5HCDL2o-25">
          <mxGeometry x="0.0813" y="-2" relative="1" as="geometry">
            <mxPoint as="offset" />
          </mxGeometry>
        </mxCell>
        <mxCell id="gvNoKPHLJ0Dtw5HCDL2o-27" value="" style="endArrow=open;endFill=1;endSize=12;html=1;rounded=0;" edge="1" parent="1">
          <mxGeometry width="160" relative="1" as="geometry">
            <mxPoint x="600" y="600" as="sourcePoint" />
            <mxPoint x="800" y="600" as="targetPoint" />
          </mxGeometry>
        </mxCell>
        <mxCell id="gvNoKPHLJ0Dtw5HCDL2o-28" value="2.3 携带client id/client secret&lt;div&gt;/随机码/用户标识，申请token&lt;/div&gt;" style="edgeLabel;html=1;align=center;verticalAlign=middle;resizable=0;points=[];" vertex="1" connectable="0" parent="gvNoKPHLJ0Dtw5HCDL2o-27">
          <mxGeometry x="-0.0187" relative="1" as="geometry">
            <mxPoint as="offset" />
          </mxGeometry>
        </mxCell>
        <mxCell id="gvNoKPHLJ0Dtw5HCDL2o-29" value="" style="html=1;verticalAlign=bottom;labelBackgroundColor=none;endArrow=none;endFill=0;dashed=1;rounded=0;startArrow=open;startFill=0;startSize=12;" edge="1" parent="1">
          <mxGeometry width="160" relative="1" as="geometry">
            <mxPoint x="600" y="640" as="sourcePoint" />
            <mxPoint x="800" y="640" as="targetPoint" />
          </mxGeometry>
        </mxCell>
        <mxCell id="gvNoKPHLJ0Dtw5HCDL2o-30" value="2.4 返回应用2 token" style="edgeLabel;html=1;align=center;verticalAlign=middle;resizable=0;points=[];" vertex="1" connectable="0" parent="gvNoKPHLJ0Dtw5HCDL2o-29">
          <mxGeometry x="0.0813" y="-2" relative="1" as="geometry">
            <mxPoint as="offset" />
          </mxGeometry>
        </mxCell>
        <mxCell id="gvNoKPHLJ0Dtw5HCDL2o-34" value="" style="html=1;verticalAlign=bottom;labelBackgroundColor=none;endArrow=none;endFill=0;dashed=1;rounded=0;startArrow=open;startFill=0;startSize=12;" edge="1" parent="1">
          <mxGeometry width="160" relative="1" as="geometry">
            <mxPoint x="370" y="660" as="sourcePoint" />
            <mxPoint x="570" y="660" as="targetPoint" />
          </mxGeometry>
        </mxCell>
        <mxCell id="gvNoKPHLJ0Dtw5HCDL2o-35" value="2.5 携带应用2 token，跳转到应用2页面" style="edgeLabel;html=1;align=center;verticalAlign=middle;resizable=0;points=[];" vertex="1" connectable="0" parent="gvNoKPHLJ0Dtw5HCDL2o-34">
          <mxGeometry x="0.0813" y="-2" relative="1" as="geometry">
            <mxPoint as="offset" />
          </mxGeometry>
        </mxCell>
        <mxCell id="gvNoKPHLJ0Dtw5HCDL2o-36" value="" style="endArrow=open;endFill=1;endSize=12;html=1;rounded=0;" edge="1" parent="1" target="gvNoKPHLJ0Dtw5HCDL2o-3">
          <mxGeometry width="160" relative="1" as="geometry">
            <mxPoint x="370" y="700" as="sourcePoint" />
            <mxPoint x="530" y="700" as="targetPoint" />
          </mxGeometry>
        </mxCell>
        <mxCell id="gvNoKPHLJ0Dtw5HCDL2o-37" value="2.6 携带应用2token访问应用2资源" style="edgeLabel;html=1;align=center;verticalAlign=middle;resizable=0;points=[];" vertex="1" connectable="0" parent="gvNoKPHLJ0Dtw5HCDL2o-36">
          <mxGeometry x="-0.0187" relative="1" as="geometry">
            <mxPoint as="offset" />
          </mxGeometry>
        </mxCell>
        <mxCell id="gvNoKPHLJ0Dtw5HCDL2o-38" value="" style="html=1;verticalAlign=bottom;labelBackgroundColor=none;endArrow=none;endFill=0;dashed=1;rounded=0;startArrow=open;startFill=0;startSize=12;" edge="1" parent="1">
          <mxGeometry width="160" relative="1" as="geometry">
            <mxPoint x="380" y="730" as="sourcePoint" />
            <mxPoint x="810" y="730" as="targetPoint" />
          </mxGeometry>
        </mxCell>
        <mxCell id="gvNoKPHLJ0Dtw5HCDL2o-39" value="2.7 返回应用2 资源" style="edgeLabel;html=1;align=center;verticalAlign=middle;resizable=0;points=[];" vertex="1" connectable="0" parent="gvNoKPHLJ0Dtw5HCDL2o-38">
          <mxGeometry x="0.0813" y="-2" relative="1" as="geometry">
            <mxPoint as="offset" />
          </mxGeometry>
        </mxCell>
        <mxCell id="gvNoKPHLJ0Dtw5HCDL2o-47" value="" style="endArrow=open;endFill=1;endSize=12;html=1;rounded=0;" edge="1" parent="1">
          <mxGeometry width="160" relative="1" as="geometry">
            <mxPoint x="370" y="790" as="sourcePoint" />
            <mxPoint x="550" y="790" as="targetPoint" />
          </mxGeometry>
        </mxCell>
        <mxCell id="gvNoKPHLJ0Dtw5HCDL2o-48" value="3. 应用1登出，同时进行单点登录" style="edgeLabel;html=1;align=center;verticalAlign=middle;resizable=0;points=[];" vertex="1" connectable="0" parent="gvNoKPHLJ0Dtw5HCDL2o-47">
          <mxGeometry x="-0.0187" relative="1" as="geometry">
            <mxPoint as="offset" />
          </mxGeometry>
        </mxCell>
        <mxCell id="gvNoKPHLJ0Dtw5HCDL2o-50" value="拿到sso的系统相关信息" style="html=1;align=left;spacingLeft=2;endArrow=block;rounded=0;edgeStyle=orthogonalEdgeStyle;curved=0;rounded=0;" edge="1" parent="1">
          <mxGeometry relative="1" as="geometry">
            <mxPoint x="580" y="810" as="sourcePoint" />
            <Array as="points">
              <mxPoint x="615" y="810" />
              <mxPoint x="615" y="840" />
            </Array>
            <mxPoint x="585" y="840" as="targetPoint" />
          </mxGeometry>
        </mxCell>
        <mxCell id="gvNoKPHLJ0Dtw5HCDL2o-51" value="" style="endArrow=open;endFill=1;endSize=12;html=1;rounded=0;" edge="1" parent="1">
          <mxGeometry width="160" relative="1" as="geometry">
            <mxPoint x="569.75" y="880" as="sourcePoint" />
            <mxPoint x="820.25" y="880" as="targetPoint" />
          </mxGeometry>
        </mxCell>
        <mxCell id="gvNoKPHLJ0Dtw5HCDL2o-52" value="3.1 调用单点登出接口" style="edgeLabel;html=1;align=center;verticalAlign=middle;resizable=0;points=[];" vertex="1" connectable="0" parent="gvNoKPHLJ0Dtw5HCDL2o-51">
          <mxGeometry x="-0.0187" relative="1" as="geometry">
            <mxPoint as="offset" />
          </mxGeometry>
        </mxCell>
        <mxCell id="gvNoKPHLJ0Dtw5HCDL2o-53" value="" style="html=1;verticalAlign=bottom;labelBackgroundColor=none;endArrow=none;endFill=0;dashed=1;rounded=0;startArrow=open;startFill=0;startSize=12;" edge="1" parent="1">
          <mxGeometry width="160" relative="1" as="geometry">
            <mxPoint x="580" y="910" as="sourcePoint" />
            <mxPoint x="810" y="910" as="targetPoint" />
          </mxGeometry>
        </mxCell>
        <mxCell id="gvNoKPHLJ0Dtw5HCDL2o-54" value="3.2 应用2登出完成" style="edgeLabel;html=1;align=center;verticalAlign=middle;resizable=0;points=[];" vertex="1" connectable="0" parent="gvNoKPHLJ0Dtw5HCDL2o-53">
          <mxGeometry x="0.0813" y="-2" relative="1" as="geometry">
            <mxPoint as="offset" />
          </mxGeometry>
        </mxCell>
        <mxCell id="gvNoKPHLJ0Dtw5HCDL2o-55" value="" style="html=1;verticalAlign=bottom;labelBackgroundColor=none;endArrow=none;endFill=0;dashed=1;rounded=0;startArrow=open;startFill=0;startSize=12;" edge="1" parent="1">
          <mxGeometry width="160" relative="1" as="geometry">
            <mxPoint x="360" y="940" as="sourcePoint" />
            <mxPoint x="560" y="940" as="targetPoint" />
          </mxGeometry>
        </mxCell>
        <mxCell id="gvNoKPHLJ0Dtw5HCDL2o-56" value="3.3 应用1完成登出" style="edgeLabel;html=1;align=center;verticalAlign=middle;resizable=0;points=[];" vertex="1" connectable="0" parent="gvNoKPHLJ0Dtw5HCDL2o-55">
          <mxGeometry x="0.0813" y="-2" relative="1" as="geometry">
            <mxPoint as="offset" />
          </mxGeometry>
        </mxCell>
      </root>
    </mxGraphModel>
  </diagram>
</mxfile>
